#!OML:ASF F:\VICON\USERDATA\INSTALL\rory3\rory3.ASF
:FULLY-SPECIFIED
:DEGREES
158
root 0.336744 17.5769 -28.3369 -4.42799 -0.591657 -2.00695
lowerback 17.8702 -0.849926 -1.54262
upperback 0.199414 -1.09156 3.52155
thorax -9.74215 -0.349165 5.01786
lowerneck -7.73713 -7.93302 -7.04869
upperneck 26.6773 -9.076 -3.61456
head 9.93063 -5.29954 -1.0717
rclavicle -1.73937e-015 -1.03368e-014
rhumerus -18.5953 -51.8524 -51.5157
rradius 89.61
rwrist -48.3219
rhand -19.5084 1.6857
rfingers 7.12502
rthumb 6.81443 -28.1846
lclavicle -1.73937e-015 -1.03368e-014
lhumerus -46.248 10.6983 74.9641
lradius 45.6151
lwrist 6.88476
lhand -9.99652 52.3768
lfingers 7.12502
lthumb 15.987 81.7371
rfemur -1.79342 -1.07059 29.8992
rtibia 29.1877
rfoot -22.4015 -18.6176
rtoes 18.6463
lfemur -17.2405 -3.94201 -7.64746
ltibia 48.228
lfoot -7.2921 -1.8717
ltoes -22.6686
159
root 0.350601 17.5794 -28.3078 -4.37613 -0.923568 -2.10654
lowerback 17.7824 -0.778483 -1.35789
upperback 0.140709 -0.949818 3.60178
thorax -9.77331 -0.286685 4.96266
lowerneck -7.44293 -7.82842 -7.06007
upperneck 26.9341 -8.91222 -3.76385
head 9.9591 -5.24607 -1.09739
rclavicle -1.20265e-014 4.53229e-014
rhumerus -18.5083 -51.4996 -51.171
rradius 89.8897
rwrist -47.1375
rhand -19.1773 1.91071
rfingers 7.12502
rthumb 7.13397 -27.9491
lclavicle -1.20265e-014 4.53229e-014
lhumerus -46.6849 10.6901 75.0102
lradius 45.5097
lwrist 6.89895
lhand -9.79429 52.4935
lfingers 7.12502
lthumb 16.1817 81.8381
rfemur -1.71507 -1.0375 29.9245
rtibia 29.168
rfoot -22.1492 -18.4546
rtoes 17.6386
lfemur -17.3424 -3.55011 -7.58931
ltibia 48.3975
lfoot -7.72923 -1.55724
ltoes -21.9066
160
root 0.363818 17.583 -28.276 -4.20254 -1.02078 -2.09418
lowerback 17.248 -0.797879 -1.06281
upperback 0.464643 -0.932978 3.5389
thorax -9.12185 -0.313977 4.68627
lowerneck -8.04329 -7.75092 -6.9313
upperneck 27.1426 -8.76983 -3.74991
head 10.1398 -5.16716 -1.13289
rclavicle -3.47873e-015 -3.10104e-014
rhumerus -17.3243 -51.8615 -51.9157
rradius 90.1422
rwrist -45.7983
rhand -18.5142 1.91305
rfingers 7.12502
rthumb 7.77403 -27.924
lclavicle -3.47873e-015 -3.10104e-014
lhumerus -46.1794 10.7791 75.09
lradius 45.1793
lwrist 6.9129
lhand -9.82403 52.5253
lfingers 7.12502
lthumb 16.1531 81.8722
rfemur -1.76014 -0.981547 29.8646
rtibia 29.099
rfoot -22.285 -18.3899
rtoes 18.2677
lfemur -17.6468 -3.26377 -7.6466
ltibia 48.4483
lfoot -7.93246 -1.29385
ltoes -20.9664
161
root 0.372762 17.5866 -28.253 -4.05014 -1.12098 -2.16742
lowerback 17.575 -0.799441 -0.917158
upperback 0.30136 -0.892239 3.60594
thorax -9.49059 -0.288922 4.68462
lowerneck -8.27578 -7.56106 -6.79459
upperneck 27.5998 -8.45657 -3.92006
head 10.3317 -5.0358 -1.20458
rclavicle -1.04362e-015 2.38542e-015
rhumerus -16.953 -51.5971 -51.8873
rradius 90.4543
rwrist -44.6013
rhand -17.7068 1.73823
rfingers 7.12502
rthumb 8.55326 -28.0685
lclavicle -1.04362e-015 2.38542e-015
lhumerus -46.4168 10.9761 75.0858
lradius 44.7904
lwrist 6.7625
lhand -9.71212 52.5373
lfingers 7.12502
lthumb 16.2609 81.8754
rfemur -1.8193 -0.836455 29.941
rtibia 29.0112
rfoot -22.288 -18.3803
rtoes 18.9667
lfemur -17.9877 -3.00235 -7.57146
ltibia 48.4638
lfoot -8.1312 -1.02484
ltoes -19.6587
162
root 0.383828 17.5928 -28.2199 -4.18216 -0.913151 -1.8081
lowerback 17.2419 -0.839764 -1.13528
upperback 0.520518 -1.01181 3.45646
thorax -9.05008 -0.352955 4.65441
lowerneck -7.96355 -7.44741 -6.50187
upperneck 27.6777 -8.36302 -3.96578
head 10.2778 -4.96973 -1.24264
rclavicle 5.2181e-015 -2.38542e-015
rhumerus -16.6032 -51.7404 -51.9135
rradius 90.6915
rwrist -42.65
rhand -16.0265 1.35092
rfingers 7.12502
rthumb 10.1746 -28.383
lclavicle 5.2181e-015 -2.38542e-015
lhumerus -46.273 11.0584 75.0446
lradius 44.3738
lwrist 6.52906
lhand -9.61158 52.436
lfingers 7.12502
lthumb 16.3577 81.7662
rfemur -1.50351 -1.25432 29.4032
rtibia 28.959
rfoot -22.5337 -18.1863
rtoes 18.3883
lfemur -17.9545 -3.14623 -8.13461
ltibia 48.3385
lfoot -8.43605 -0.330726
ltoes -20.0409
163
root 0.39233 17.586 -28.2146 -4.1661 -0.98344 -2.03966
lowerback 17.8869 -0.925439 -0.941504
upperback 0.427209 -1.05978 3.6483
thorax -9.51106 -0.367682 4.79546
lowerneck -8.55963 -7.25917 -6.52692
upperneck 28.2755 -7.96565 -4.21682
head 10.6025 -4.8279 -1.33072
rclavicle 9.98893e-015 -3.18055e-015
rhumerus -15.8854 -51.0435 -52.1515
rradius 90.8504
rwrist -41.1063
rhand -15.4919 1.60326
rfingers 7.12502
rthumb 10.6903 -28.1048
lclavicle 9.98893e-015 -3.18055e-015
lhumerus -46.399 11.6821 75.0354
lradius 43.902
lwrist 6.27595
lhand -9.63389 52.217
lfingers 7.12502
lthumb 16.3362 81.549
rfemur -1.47961 -0.93695 29.7057
rtibia 28.9092
rfoot -22.4794 -18.4166
rtoes 17.8282
lfemur -18.2433 -2.89412 -7.90192
ltibia 48.2279
lfoot -8.33332 0.75172
ltoes -21.8035
164
root 0.409212 17.5876 -28.1811 -4.02459 -0.8919 -1.87593
lowerback 17.8057 -0.791566 -0.685607
upperback 0.775143 -0.858302 3.44864
thorax -9.10588 -0.300295 4.36148
lowerneck -10.1327 -7.40392 -5.92394
upperneck 28.9783 -8.09748 -4.41273
head 11.1332 -4.85375 -1.61409
rclavicle 9.64106e-015 -1.90833e-014
rhumerus -15.0783 -51.6554 -52.5054
rradius 90.9953
rwrist -39.7811
rhand -16.3293 3.01452
rfingers 7.12502
rthumb 9.88242 -26.7335
lclavicle 9.64106e-015 -1.90833e-014
lhumerus -45.3365 11.4242 75.3024
lradius 43.382
lwrist 6.09384
lhand -9.62221 52.0558
lfingers 7.12502
lthumb 16.3474 81.3869
rfemur -1.48088 -0.980307 29.4509
rtibia 28.8841
rfoot -22.6366 -18.3768
rtoes 18.1568
lfemur -18.5067 -2.90689 -8.19083
ltibia 47.9928
lfoot -8.58915 0.775977
ltoes -21.4126
165
root 0.423869 17.5919 -28.1442 -3.96389 -0.943901 -1.74165
lowerback 17.7619 -1.02449 -0.945808
upperback 0.445386 -1.1919 3.66748
thorax -9.40859 -0.43285 4.84657
lowerneck -8.69452 -6.94946 -6.55881
upperneck 28.8031 -7.43584 -4.43665
head 10.8159 -4.62319 -1.36589
rclavicle -6.55989e-015 -3.18055e-014
rhumerus -14.9352 -49.9939 -52.2372
rradius 91.2414
rwrist -38.8118
rhand -19.3586 5.9106
rfingers 7.12502
rthumb 6.95899 -23.955
lclavicle -6.55989e-015 -3.18055e-014
lhumerus -46.746 12.1893 75.1749
lradius 43.5486
lwrist 6.10944
lhand -9.52266 52.3012
lfingers 7.12502
lthumb 16.4433 81.6244
rfemur -1.38146 -0.920423 29.2418
rtibia 28.8624
rfoot -22.6882 -18.2809
rtoes 18.7937
lfemur -18.6125 -2.88713 -8.43513
ltibia 47.7178
lfoot -8.8991 0.919705
ltoes -20.8014
166
root 0.437265 17.5908 -28.1122 -3.89311 -1.1595 -1.67881
lowerback 18.3785 -0.898865 -0.963395
upperback 0.137513 -1.01372 3.67713
thorax -10.1126 -0.325697 4.86
lowerneck -8.96247 -6.90356 -6.39259
upperneck 29.5154 -7.30743 -4.66174
head 11.1214 -4.58642 -1.49739
rclavicle 1.19271e-014 -3.26007e-014
rhumerus -15.5344 -49.2008 -51.4654
rradius 91.6115
rwrist -37.8945
rhand -19.0898 6.19922
rfingers 7.12502
rthumb 7.21843 -23.6577
lclavicle 1.19271e-014 -3.26007e-014
lhumerus -47.4354 12.1174 75.1275
lradius 43.4428
lwrist 5.96896
lhand -9.37618 51.4617
lfingers 7.12502
lthumb 16.5843 80.773
rfemur -1.2987 -0.898975 29.0909
rtibia 28.8122
rfoot -22.7315 -18.1171
rtoes 18.7309
lfemur -18.6915 -2.7235 -8.56397
ltibia 47.3269
lfoot -9.03273 1.27227
ltoes -20.6286
